<svg width="60" height="60" viewBox="0 0 60 60" fill="none" xmlns="http://www.w3.org/2000/svg">
<circle cx="30" cy="30" r="30" fill="#674736"/>
<mask id="mask0_2_37" style="mask-type:alpha" maskUnits="userSpaceOnUse" x="7" y="7" width="46" height="46">
<rect x="7" y="7" width="46" height="46" fill="#D9D9D9"/>
</mask>
<g mask="url(#mask0_2_37)">
<path d="M16.5829 45.0938V43.5125H42.5062V45.0938H16.5829ZM22.1892 38.4812C20.6559 38.4812 19.3383 37.9381 18.2366 36.8517C17.1342 35.7661 16.5829 34.4405 16.5829 32.875V14.9062H24.442V18.7875L21.4704 21.183C21.439 21.2474 21.3114 21.5191 21.0875 21.9983V27.5079C21.0875 27.764 21.1914 27.9959 21.3991 28.2037C21.6069 28.4107 21.8545 28.5142 22.142 28.5142H28.1795C28.467 28.5142 28.7143 28.4107 28.9213 28.2037C29.1291 27.9959 29.2329 27.764 29.2329 27.5079V21.9983C29.2329 21.9025 29.0892 21.6307 28.8017 21.183L25.8795 18.7875V14.9062H42.842C43.5765 14.9062 44.2232 15.1777 44.7821 15.7205C45.341 16.264 45.6204 16.9191 45.6204 17.6858V22.0938C45.6204 22.8604 45.341 23.5232 44.7821 24.0821C44.2232 24.641 43.5765 24.9205 42.842 24.9205H39.6312V32.875C39.6312 34.4405 39.0881 35.7661 38.0017 36.8517C36.9161 37.9381 35.5905 38.4812 34.025 38.4812H22.1892ZM39.6312 23.292H42.842C43.161 23.292 43.4324 23.1801 43.6562 22.9563C43.8801 22.7324 43.992 22.4449 43.992 22.0938V17.6858C43.992 17.3339 43.8801 17.0464 43.6562 16.8233C43.4324 16.5994 43.161 16.4875 42.842 16.4875H39.6312V23.292Z" fill="white"/>
</g>
</svg>
