<svg width="60" height="60" viewBox="0 0 60 60" fill="none" xmlns="http://www.w3.org/2000/svg">
<circle cx="30" cy="30" r="30" fill="#674736"/>
<mask id="mask0_2_158" style="mask-type:alpha" maskUnits="userSpaceOnUse" x="8" y="7" width="45" height="45">
<rect x="8" y="7" width="45" height="45" fill="#D9D9D9"/>
</mask>
<g mask="url(#mask0_2_158)">
<path d="M18.6402 39.5778C20.4845 38.359 22.3674 37.4215 24.2889 36.7653C26.2111 36.109 28.2815 35.7809 30.5 35.7809C32.7185 35.7809 34.7967 36.109 36.7347 36.7653C38.672 37.4215 40.5624 38.359 42.4059 39.5778C43.6561 38.0155 44.5704 36.4143 45.1486 34.774C45.7269 33.133 46.016 31.375 46.016 29.5C46.016 25.1253 44.5235 21.4458 41.5385 18.4615C38.5542 15.4765 34.8747 13.984 30.5 13.984C26.1252 13.984 22.4457 15.4765 19.4615 18.4615C16.4765 21.4458 14.984 25.1253 14.984 29.5C14.984 31.3435 15.2731 33.0936 15.8514 34.7504C16.4296 36.4064 17.3592 38.0155 18.6402 39.5778ZM30.5 31.1403C28.6565 31.1403 27.1017 30.5155 25.8357 29.266C24.5705 28.0158 23.9379 26.4689 23.9379 24.6254C23.9379 22.7811 24.5705 21.2264 25.8357 19.9611C27.1017 18.6951 28.6565 18.0621 30.5 18.0621C32.3435 18.0621 33.8982 18.6951 35.1642 19.9611C36.4295 21.2264 37.0621 22.7811 37.0621 24.6254C37.0621 26.4689 36.4295 28.0158 35.1642 29.266C33.8982 30.5155 32.3435 31.1403 30.5 31.1403ZM30.5 48.5778C27.8435 48.5778 25.3591 48.0779 23.0469 47.0781C20.7346 46.0784 18.719 44.7111 17 42.9764C15.281 41.2424 13.9216 39.2189 12.9219 36.9059C11.9221 34.5936 11.4222 32.125 11.4222 29.5C11.4222 26.8435 11.9221 24.3591 12.9219 22.0469C13.9216 19.7346 15.2889 17.719 17.0236 16C18.7576 14.281 20.7811 12.9216 23.0941 11.9219C25.4064 10.9221 27.875 10.4223 30.5 10.4223C33.1565 10.4223 35.6409 10.9221 37.9531 11.9219C40.2654 12.9216 42.281 14.281 44 16C45.719 17.719 47.0784 19.7425 48.0781 22.0705C49.0779 24.3985 49.5777 26.875 49.5777 29.5C49.5777 32.125 49.0779 34.5936 48.0781 36.9059C47.0784 39.2189 45.719 41.2424 44 42.9764C42.281 44.7111 40.2575 46.0784 37.9295 47.0781C35.6015 48.0779 33.125 48.5778 30.5 48.5778Z" fill="white"/>
</g>
</svg>
