<svg width="60" height="60" viewBox="0 0 60 60" fill="none" xmlns="http://www.w3.org/2000/svg">
<circle cx="30" cy="30" r="30" fill="#674736"/>
<mask id="mask0_2_182" style="mask-type:alpha" maskUnits="userSpaceOnUse" x="7" y="7" width="46" height="46">
<rect x="7" y="7" width="46" height="46" fill="#D9D9D9"/>
</mask>
<g mask="url(#mask0_2_182)">
<path d="M21.183 37.2358L27.0296 31.3892L30.8625 35.2233L38.0017 28.1312V31.5812H41.1642V22.6687H32.2517V25.8312H35.7017L30.8625 30.6705L27.0296 26.8375L18.9313 34.983L21.183 37.2358ZM16.0563 47.5858C15.0657 47.5858 14.2113 47.2262 13.4929 46.5071C12.7738 45.7887 12.4142 44.9343 12.4142 43.9437V16.0562C12.4142 15.0657 12.7738 14.2113 13.4929 13.4929C14.2113 12.7738 15.0657 12.4142 16.0563 12.4142H43.9438C44.9343 12.4142 45.7887 12.7738 46.5071 13.4929C47.2262 14.2113 47.5858 15.0657 47.5858 16.0562V43.9437C47.5858 44.9343 47.2262 45.7887 46.5071 46.5071C45.7887 47.2262 44.9343 47.5858 43.9438 47.5858H16.0563ZM16.0563 43.9437H43.9438V16.0562H16.0563V43.9437Z" fill="white"/>
</g>
</svg>
