<svg width="40" height="40" viewBox="0 0 40 40" fill="none" xmlns="http://www.w3.org/2000/svg">
<mask id="mask0_2_54" style="mask-type:alpha" maskUnits="userSpaceOnUse" x="0" y="0" width="40" height="40">
<rect width="40" height="40" fill="#D9D9D9"/>
</mask>
<g mask="url(#mask0_2_54)">
<path d="M8.33301 33.125V31.75H30.875V33.125H8.33301ZM13.208 27.375C11.8473 27.375 10.6947 26.9027 9.75001 25.958C8.80534 25.014 8.33301 23.8613 8.33301 22.5V6.875H31.125C31.8197 6.875 32.403 7.104 32.875 7.562C33.347 8.02067 33.583 8.59733 33.583 9.292V13.125C33.583 13.8197 33.347 14.403 32.875 14.875C32.403 15.347 31.8337 15.583 31.167 15.583H28.375V22.5C28.375 23.8613 27.9027 25.014 26.958 25.958C26.014 26.9027 24.8613 27.375 23.5 27.375H13.208ZM28.375 14.167H31.167C31.4443 14.167 31.6803 14.0697 31.875 13.875C32.0697 13.6803 32.167 13.4303 32.167 13.125V9.292C32.167 8.986 32.0697 8.736 31.875 8.542C31.6803 8.34733 31.4443 8.25 31.167 8.25H28.375V14.167ZM13.208 25.958H23.5C24.4447 25.958 25.2573 25.618 25.938 24.938C26.618 24.2573 26.958 23.4447 26.958 22.5V8.25H16.417V10.25L18.958 12.333C19.014 12.389 19.139 12.6253 19.333 13.042V17.833C19.333 18.0557 19.2497 18.2573 19.083 18.438C18.9163 18.618 18.6943 18.708 18.417 18.708H13.167C12.889 18.708 12.6667 18.618 12.5 18.438C12.3333 18.2573 12.25 18.0557 12.25 17.833V13.042C12.25 12.9587 12.361 12.7223 12.583 12.333L15.167 10.25V8.25H9.75001V22.5C9.75001 23.4447 10.0903 24.2573 10.771 24.938C11.4517 25.618 12.264 25.958 13.208 25.958Z" fill="#1C1B1F"/>
</g>
</svg>
