<svg width="40" height="40" viewBox="0 0 40 40" fill="none" xmlns="http://www.w3.org/2000/svg">
<mask id="mask0_2_157" style="mask-type:alpha" maskUnits="userSpaceOnUse" x="0" y="0" width="40" height="40">
<rect width="40" height="40" fill="#D9D9D9"/>
</mask>
<g mask="url(#mask0_2_157)">
<path d="M9.79199 29.25C11.3753 28.1387 12.9933 27.2707 14.646 26.646C16.2987 26.0207 18.0833 25.708 20 25.708C21.9167 25.708 23.7013 26.0207 25.354 26.646C27.0067 27.2707 28.6247 28.1387 30.208 29.25C31.3747 27.9167 32.2567 26.486 32.854 24.958C33.4513 23.4307 33.75 21.778 33.75 20C33.75 16.1387 32.4237 12.8817 29.771 10.229C27.1183 7.57633 23.8613 6.25 20 6.25C16.1387 6.25 12.8817 7.57633 10.229 10.229C7.57633 12.8817 6.24999 16.1387 6.24999 20C6.24999 21.778 6.54866 23.4307 7.14599 24.958C7.74333 26.486 8.62533 27.9167 9.79199 29.25ZM20 21.042C18.5 21.042 17.2293 20.528 16.188 19.5C15.146 18.472 14.625 17.1943 14.625 15.667C14.625 14.167 15.146 12.903 16.188 11.875C17.2293 10.847 18.5 10.333 20 10.333C21.5 10.333 22.7707 10.854 23.812 11.896C24.854 12.9373 25.375 14.208 25.375 15.708C25.375 17.208 24.854 18.472 23.812 19.5C22.7707 20.528 21.5 21.042 20 21.042ZM20 35.833C17.8053 35.833 15.7497 35.4163 13.833 34.583C11.9163 33.7497 10.2427 32.618 8.81199 31.188C7.38199 29.7573 6.25033 28.0837 5.41699 26.167C4.58366 24.2503 4.16699 22.1947 4.16699 20C4.16699 17.8053 4.58366 15.7497 5.41699 13.833C6.25033 11.9163 7.38199 10.243 8.81199 8.813C10.2427 7.38233 11.9163 6.25033 13.833 5.417C15.7497 4.58367 17.8053 4.167 20 4.167C22.1947 4.167 24.2503 4.58367 26.167 5.417C28.0837 6.25033 29.757 7.38233 31.187 8.813C32.6177 10.243 33.7497 11.9163 34.583 13.833C35.4163 15.7497 35.833 17.8053 35.833 20C35.833 22.1947 35.4163 24.2503 34.583 26.167C33.7497 28.0837 32.6177 29.7573 31.187 31.188C29.757 32.618 28.0837 33.7497 26.167 34.583C24.2503 35.4163 22.1947 35.833 20 35.833ZM20 33.75C21.528 33.75 23.028 33.5 24.5 33C25.972 32.5 27.333 31.75 28.583 30.75C27.333 29.8053 25.986 29.076 24.542 28.562C23.0973 28.0487 21.5833 27.792 20 27.792C18.4167 27.792 16.9027 28.0487 15.458 28.562C14.014 29.076 12.667 29.8053 11.417 30.75C12.667 31.75 14.028 32.5 15.5 33C16.972 33.5 18.472 33.75 20 33.75ZM20 18.958C20.9447 18.958 21.7223 18.6457 22.333 18.021C22.9443 17.3957 23.25 16.6247 23.25 15.708C23.25 14.764 22.9443 13.9793 22.333 13.354C21.7223 12.7293 20.9447 12.417 20 12.417C19.0553 12.417 18.2777 12.7293 17.667 13.354C17.0557 13.9793 16.75 14.764 16.75 15.708C16.75 16.6527 17.0557 17.4307 17.667 18.042C18.2777 18.6527 19.0553 18.958 20 18.958Z" fill="#1C1B1F"/>
</g>
</svg>
