<svg width="40" height="40" viewBox="0 0 40 40" fill="none" xmlns="http://www.w3.org/2000/svg">
<mask id="mask0_2_178" style="mask-type:alpha" maskUnits="userSpaceOnUse" x="0" y="0" width="40" height="40">
<rect width="40" height="40" fill="#D9D9D9"/>
</mask>
<g mask="url(#mask0_2_178)">
<path d="M12.333 25.792L17.417 20.708L20.75 24.042L27.292 17.542V21.042H29.375V13.958H22.292V16.042H25.792L20.75 21.083L17.417 17.75L10.875 24.333L12.333 25.792ZM8.45801 34.167C7.73601 34.167 7.11801 33.91 6.60401 33.396C6.09001 32.882 5.83301 32.264 5.83301 31.542V8.45801C5.83301 7.73601 6.09001 7.11801 6.60401 6.60401C7.11801 6.09001 7.73601 5.83301 8.45801 5.83301H31.542C32.264 5.83301 32.882 6.09001 33.396 6.60401C33.91 7.11801 34.167 7.73601 34.167 8.45801V31.542C34.167 32.264 33.91 32.882 33.396 33.396C32.882 33.91 32.264 34.167 31.542 34.167H8.45801ZM8.45801 32.083H31.542C31.6807 32.083 31.8057 32.0277 31.917 31.917C32.0277 31.8057 32.083 31.6807 32.083 31.542V8.45801C32.083 8.31934 32.0277 8.19434 31.917 8.08301C31.8057 7.97234 31.6807 7.91701 31.542 7.91701H8.45801C8.31934 7.91701 8.19434 7.97234 8.08301 8.08301C7.97234 8.19434 7.91701 8.31934 7.91701 8.45801V31.542C7.91701 31.6807 7.97234 31.8057 8.08301 31.917C8.19434 32.0277 8.31934 32.083 8.45801 32.083Z" fill="#1C1B1F"/>
</g>
</svg>
