<svg width="40" height="40" viewBox="0 0 40 40" fill="none" xmlns="http://www.w3.org/2000/svg">
<mask id="mask0_2_55" style="mask-type:alpha" maskUnits="userSpaceOnUse" x="0" y="0" width="40" height="40">
<rect width="40" height="40" fill="#D9D9D9"/>
</mask>
<g mask="url(#mask0_2_55)">
<path d="M8.33301 33.125V31.75H30.875V33.125H8.33301ZM13.208 27.375C11.8747 27.375 10.729 26.9027 9.77101 25.958C8.81234 25.014 8.33301 23.8613 8.33301 22.5V6.875H15.167V10.25L12.583 12.333C12.5557 12.389 12.4447 12.6253 12.25 13.042V17.833C12.25 18.0557 12.3403 18.2573 12.521 18.438C12.7017 18.618 12.917 18.708 13.167 18.708H18.417C18.667 18.708 18.882 18.618 19.062 18.438C19.2427 18.2573 19.333 18.0557 19.333 17.833V13.042C19.333 12.9587 19.208 12.7223 18.958 12.333L16.417 10.25V6.875H31.167C31.8057 6.875 32.368 7.111 32.854 7.583C33.34 8.05567 33.583 8.62533 33.583 9.292V13.125C33.583 13.7917 33.34 14.368 32.854 14.854C32.368 15.34 31.8057 15.583 31.167 15.583H28.375V22.5C28.375 23.8613 27.9027 25.014 26.958 25.958C26.014 26.9027 24.8613 27.375 23.5 27.375H13.208ZM28.375 14.167H31.167C31.4443 14.167 31.6803 14.0697 31.875 13.875C32.0697 13.6803 32.167 13.4303 32.167 13.125V9.292C32.167 8.986 32.0697 8.736 31.875 8.542C31.6803 8.34733 31.4443 8.25 31.167 8.25H28.375V14.167Z" fill="#674736"/>
</g>
</svg>
