<svg width="40" height="40" viewBox="0 0 40 40" fill="none" xmlns="http://www.w3.org/2000/svg">
<mask id="mask0_3_225" style="mask-type:alpha" maskUnits="userSpaceOnUse" x="0" y="0" width="40" height="40">
<rect width="40" height="40" fill="#D9D9D9"/>
</mask>
<g mask="url(#mask0_3_225)">
<path d="M12.333 25.792L17.417 20.708L20.75 24.042L27.292 17.542V21.042H29.375V13.958H22.292V16.042H25.792L20.75 21.083L17.417 17.75L10.875 24.333L12.333 25.792ZM8.45801 34.167C7.73601 34.167 7.11801 33.91 6.60401 33.396C6.09001 32.882 5.83301 32.264 5.83301 31.542V8.45801C5.83301 7.73601 6.09001 7.11801 6.60401 6.60401C7.11801 6.09001 7.73601 5.83301 8.45801 5.83301H31.542C32.264 5.83301 32.882 6.09001 33.396 6.60401C33.91 7.11801 34.167 7.73601 34.167 8.45801V31.542C34.167 32.264 33.91 32.882 33.396 33.396C32.882 33.91 32.264 34.167 31.542 34.167H8.45801Z" fill="#674736"/>
</g>
</svg>
